<?xml version="1.0" standalone="no"?>
<!DOCTYPE svg PUBLIC "-//W3C//DTD SVG 20010904//EN"
 "http://www.w3.org/TR/2001/REC-SVG-20010904/DTD/svg10.dtd">
<svg version="1.0" xmlns="http://www.w3.org/2000/svg"
 width="1080.000000pt" height="1080.000000pt" viewBox="0 0 1080.000000 1080.000000"
 preserveAspectRatio="xMidYMid meet">
<metadata>
Created by potrace 1.11, written by Peter Selinger 2001-2013
</metadata>
<g transform="translate(0.000000,1080.000000) scale(0.100000,-0.100000)"
fill="#000000" stroke="none">
<path d="M8953 7220 c-86 -13 -152 -66 -187 -151 -8 -18 -76 -326 -152 -684
-126 -594 -140 -653 -166 -686 -16 -19 -37 -67 -48 -108 -12 -40 -30 -91 -41
-113 -29 -57 -94 -124 -143 -148 -42 -20 -86 -27 -86 -13 0 4 52 264 116 578
63 313 118 599 121 635 7 84 -24 212 -70 288 -42 70 -133 155 -208 192 -95 48
-175 63 -314 57 -140 -6 -215 -28 -296 -90 -49 -37 -75 -44 -49 -12 35 42
-172 65 -270 30 -52 -19 -94 -56 -120 -106 -10 -20 -78 -314 -151 -655 -116
-539 -136 -624 -160 -659 -16 -22 -37 -77 -49 -123 -67 -267 -173 -456 -296
-528 -78 -46 -152 -10 -161 78 -3 31 43 254 173 828 192 856 198 889 156 967
-34 65 -89 97 -166 97 -125 0 -206 -44 -258 -140 -20 -38 -67 -232 -198 -822
-94 -425 -180 -798 -191 -830 -46 -134 -158 -258 -267 -296 -36 -13 -42 -12
-77 7 -47 27 -75 78 -75 134 0 24 77 388 171 811 152 682 170 775 166 834 -5
83 -37 138 -99 169 -36 19 -53 21 -116 15 -41 -3 -89 -13 -108 -22 -40 -19
-86 -69 -113 -122 -11 -21 -86 -335 -167 -698 -108 -482 -154 -668 -170 -694
-13 -19 -30 -64 -39 -100 -54 -216 -124 -356 -214 -422 -81 -59 -131 -50 -131
25 0 21 23 127 52 235 46 174 52 209 52 297 0 121 -22 189 -88 262 l-44 48 40
45 c48 53 111 181 133 270 68 265 11 471 -160 584 -117 79 -272 106 -453 81
-108 -15 -173 -38 -230 -81 -18 -14 -36 -23 -40 -19 -4 4 1 12 10 19 17 12 17
14 0 28 -55 49 -189 48 -276 0 -97 -55 -82 -3 -326 -1133 -121 -558 -220
-1033 -220 -1057 0 -116 103 -184 248 -164 113 16 194 73 221 154 6 18 56 238
110 488 99 452 99 455 80 476 -15 16 -18 28 -13 54 l7 33 15 -29 c37 -73 89
-104 175 -104 56 0 165 24 182 41 25 25 88 -1 110 -46 22 -49 19 -76 -30 -272
-34 -133 -45 -197 -45 -254 0 -151 67 -266 190 -328 85 -43 149 -55 269 -48
124 7 200 25 296 71 88 41 190 123 176 140 -6 7 -6 18 -1 25 6 11 17 6 51 -22
107 -92 260 -125 439 -96 117 19 243 84 360 187 37 32 42 42 33 54 -10 11 -10
17 -1 26 9 9 23 1 58 -32 53 -50 119 -86 199 -110 69 -20 221 -21 316 -1 87
18 185 56 185 71 0 6 6 17 14 23 11 9 19 5 37 -20 12 -18 46 -42 77 -57 48
-22 64 -24 131 -19 92 6 159 35 201 85 28 34 29 37 11 47 -10 5 -16 15 -14 21
2 7 21 2 51 -13 57 -28 168 -53 240 -53 71 0 240 35 313 65 33 13 86 40 118
59 59 36 201 161 201 176 0 5 -8 10 -17 12 -10 3 26 2 80 0 113 -5 239 12 283
39 l30 18 12 -46 c16 -57 73 -117 125 -131 39 -11 130 -2 178 16 44 17 99 72
125 125 33 65 435 1940 436 2034 1 153 -95 229 -259 203z m-1221 -560 c44 -13
93 -51 113 -90 34 -67 30 -105 -64 -570 -50 -245 -93 -455 -96 -468 -5 -19 -9
-21 -25 -12 -11 6 -17 16 -14 24 3 9 -14 18 -58 31 -87 24 -170 29 -268 16
-46 -6 -84 -10 -85 -9 -1 2 38 186 86 410 93 433 112 491 184 575 34 40 141
103 174 103 9 0 33 -5 53 -10z m-3639 -484 c79 -32 109 -115 88 -236 -20 -112
-95 -240 -124 -211 -26 26 -202 4 -278 -35 -28 -13 -67 -42 -88 -63 -31 -31
-37 -34 -34 -17 3 11 18 32 34 46 26 22 33 42 60 165 17 80 41 160 56 187 34
62 94 123 151 153 54 28 89 31 135 11z m3422 -959 c84 -44 82 -40 51 -86 -55
-79 -177 -148 -244 -136 -122 20 -135 155 -23 227 41 26 52 29 106 25 38 -3
79 -14 110 -30z"/>
<path d="M2429 6345 c-355 -45 -663 -85 -684 -89 -116 -22 -192 -103 -183
-195 6 -56 36 -104 81 -128 41 -22 113 -19 330 10 92 13 167 20 167 16 0 -4
-83 -400 -185 -881 -102 -480 -185 -886 -185 -903 0 -16 9 -48 19 -71 43 -96
141 -123 297 -83 52 14 109 59 133 107 10 21 108 456 216 967 109 512 198 931
199 931 1 1 107 15 237 32 149 19 249 36 270 47 111 56 145 157 87 253 -23 38
-84 72 -125 71 -15 -1 -319 -38 -674 -84z"/>
</g>
</svg>
